STARTFONT 2.1
FONT -Monotype-Bookman Old Style-Regular-I-Normal--25-180-100-100-P-131-iso8859-2
SIZE 18 100 100
FONTBOUNDINGBOX 37 29 -6 -6

STARTPROPERTIES 24
FOUNDRY "Monotype"
FAMILY_NAME "Bookman Old Style"
WEIGHT_NAME "Regular"
SLANT "I"
SETWIDTH_NAME "Normal"
ADD_STYLE_NAME ""
PIXEL_SIZE 25
POINT_SIZE 180
RESOLUTION_X 100
RESOLUTION_Y 100
SPACING "P"
AVERAGE_WIDTH 131
CHARSET_REGISTRY "iso8859"
CHARSET_ENCODING "2"
FACE_NAME "Bookman Old Style Italic ISO Latin2"
_DEC_DEVICE_FONTNAMES "PS=bookmanoldstyle-it-lat2"
COPYRIGHT "Copyright (c) 1993 Monotype Typography Ltd."
CAP_HEIGHT 19
X_HEIGHT 14
WEIGHT 10
QUAD_WIDTH 15
DEFAULT_CHAR 160
FONT_DESCENT 6
FONT_ASCENT 23
ENDPROPERTIES

CHARS 191

STARTCHAR space
ENCODING 32
SWIDTH 300 0
DWIDTH 8 0
BBX 0 0 0 0
BITMAP
ENDCHAR

STARTCHAR exclam
ENCODING 33
SWIDTH 320 0
DWIDTH 8 0
BBX 6 18 3 0
BITMAP
08
1C
1C
1C
18
18
18
30
30
30
30
20
20
20
00
60
E0
C0
ENDCHAR

STARTCHAR quotedbl
ENCODING 34
SWIDTH 360 0
DWIDTH 9 0
BBX 6 6 5 11
BITMAP
CC
CC
88
88
88
90
ENDCHAR

STARTCHAR numbersign
ENCODING 35
SWIDTH 600 0
DWIDTH 15 0
BBX 12 17 3 -1
BITMAP
0C60
0C40
0C40
0840
0840
7FF0
18C0
18C0
1880
1880
FFF0
1080
1180
3180
3180
3100
3100
ENDCHAR

STARTCHAR dollar
ENCODING 36
SWIDTH 620 0
DWIDTH 16 0
BBX 14 23 3 -3
BITMAP
0040
0040
0040
07E4
1CBC
389C
308C
3084
3980
1D00
0F80
01E0
0370
0238
C218
C218
C618
E630
BC60
8FC0
0400
0C00
0800
ENDCHAR

STARTCHAR percent
ENCODING 37
SWIDTH 800 0
DWIDTH 20 0
BBX 18 17 3 0
BITMAP
0E0180
310300
618200
418400
C10800
C11000
C32000
466000
38C700
019880
0130C0
0220C0
0420C0
086080
106180
302300
601C00
ENDCHAR

STARTCHAR ampersand
ENCODING 38
SWIDTH 820 0
DWIDTH 21 0
BBX 18 17 3 0
BITMAP
03E000
063000
0C3000
0C3000
0C3000
02E000
070FC0
18C300
30C200
606600
C06400
C07CC0
C038C0
C030C0
E070C0
71D880
3F0F00
ENDCHAR

STARTCHAR quoteright
ENCODING 39
SWIDTH 280 0
DWIDTH 7 0
BBX 5 7 4 11
BITMAP
30
38
28
18
10
20
C0
ENDCHAR

STARTCHAR parenleft
ENCODING 40
SWIDTH 280 0
DWIDTH 7 0
BBX 8 24 2 -6
BITMAP
01
06
04
0C
18
18
30
30
30
60
60
60
60
E0
C0
C0
C0
C0
C0
C0
40
40
60
20
ENDCHAR

STARTCHAR parenright
ENCODING 41
SWIDTH 280 0
DWIDTH 7 0
BBX 8 24 0 -6
BITMAP
04
06
02
03
03
03
03
03
03
03
07
06
06
06
06
0C
0C
0C
18
18
30
20
E0
40
ENDCHAR

STARTCHAR asterisk
ENCODING 42
SWIDTH 440 0
DWIDTH 11 0
BBX 9 9 4 8
BITMAP
0C00
0C00
E800
EB80
1F80
3400
6400
6600
0600
ENDCHAR

STARTCHAR plus
ENCODING 43
SWIDTH 600 0
DWIDTH 15 0
BBX 12 12 3 3
BITMAP
0600
0600
0600
0600
0600
FFF0
FFF0
0600
0600
0600
0600
0600
ENDCHAR

STARTCHAR comma
ENCODING 44
SWIDTH 300 0
DWIDTH 8 0
BBX 5 7 1 -4
BITMAP
30
38
28
18
10
20
C0
ENDCHAR

STARTCHAR minus
ENCODING 45
SWIDTH 600 0
DWIDTH 15 0
BBX 12 2 3 8
BITMAP
FFF0
FFF0
ENDCHAR

STARTCHAR period
ENCODING 46
SWIDTH 300 0
DWIDTH 8 0
BBX 3 3 3 0
BITMAP
60
E0
C0
ENDCHAR

STARTCHAR slash
ENCODING 47
SWIDTH 600 0
DWIDTH 15 0
BBX 13 21 1 -3
BITMAP
0018
0010
0030
0020
0060
00C0
00C0
0180
0100
0300
0200
0600
0C00
0800
1800
1000
3000
6000
6000
C000
8000
ENDCHAR

STARTCHAR zero
ENCODING 48
SWIDTH 620 0
DWIDTH 16 0
BBX 13 17 3 0
BITMAP
03E0
0E30
1838
3018
3018
6018
6018
6018
C018
C038
C030
C030
C060
C060
60C0
7380
1F00
ENDCHAR

STARTCHAR one
ENCODING 49
SWIDTH 620 0
DWIDTH 16 0
BBX 9 17 4 0
BITMAP
0080
0F80
0F80
0300
0300
0300
0300
0200
0600
0600
0600
0600
0C00
0C00
0C00
1C00
FF00
ENDCHAR

STARTCHAR two
ENCODING 50
SWIDTH 620 0
DWIDTH 16 0
BBX 15 17 1 0
BITMAP
01F0
07FC
0C0E
0806
1006
1006
100E
000C
0018
0030
0060
0180
0300
0C0C
1808
7FF8
FFF0
ENDCHAR

STARTCHAR three
ENCODING 51
SWIDTH 620 0
DWIDTH 16 0
BBX 14 17 2 0
BITMAP
01E0
07F8
0C1C
080C
180C
000C
0018
0070
03C0
0070
0018
0018
4018
E038
6030
70E0
1F80
ENDCHAR

STARTCHAR four
ENCODING 52
SWIDTH 620 0
DWIDTH 16 0
BBX 14 17 2 0
BITMAP
0018
0038
0078
00B0
0330
0630
0C30
1860
3060
6060
7FFC
FFFC
00C0
00C0
00C0
01C0
0180
ENDCHAR

STARTCHAR five
ENCODING 53
SWIDTH 620 0
DWIDTH 16 0
BBX 15 18 2 0
BITMAP
0002
07FC
07FC
0C00
0800
0800
1800
1F80
1FE0
0070
0038
0018
0018
4018
E038
6030
70E0
1F80
ENDCHAR

STARTCHAR six
ENCODING 54
SWIDTH 620 0
DWIDTH 16 0
BBX 13 17 3 0
BITMAP
01F8
0780
0C00
1800
3000
7000
6FC0
78E0
F070
E030
C030
C030
C030
C070
60E0
71C0
1F00
ENDCHAR

STARTCHAR seven
ENCODING 55
SWIDTH 620 0
DWIDTH 16 0
BBX 14 18 4 0
BITMAP
2000
3FFC
3FFC
4018
C030
4060
00C0
0180
0300
0300
0600
0E00
0C00
1800
1800
3800
3000
7000
ENDCHAR

STARTCHAR eight
ENCODING 56
SWIDTH 620 0
DWIDTH 16 0
BBX 14 17 2 0
BITMAP
03F0
0E18
1C0C
180C
180C
1C18
0E30
07E0
0DE0
3870
6038
E018
C018
C018
6030
7060
1FC0
ENDCHAR

STARTCHAR nine
ENCODING 57
SWIDTH 620 0
DWIDTH 16 0
BBX 13 17 3 0
BITMAP
07C0
1C70
3830
3018
6018
6018
6018
6038
7078
38D8
1FB0
0070
0060
00C0
0380
0F00
F800
ENDCHAR

STARTCHAR colon
ENCODING 58
SWIDTH 300 0
DWIDTH 8 0
BBX 5 12 3 0
BITMAP
18
38
30
00
00
00
00
00
00
60
E0
C0
ENDCHAR

STARTCHAR semicolon
ENCODING 59
SWIDTH 300 0
DWIDTH 8 0
BBX 7 16 1 -4
BITMAP
06
0E
0C
00
00
00
00
00
00
10
38
38
18
10
30
C0
ENDCHAR

STARTCHAR less
ENCODING 60
SWIDTH 600 0
DWIDTH 15 0
BBX 11 11 4 2
BITMAP
0060
01E0
0F00
3C00
F000
C000
7800
1E00
0780
00E0
0020
ENDCHAR

STARTCHAR equal
ENCODING 61
SWIDTH 600 0
DWIDTH 15 0
BBX 12 6 3 6
BITMAP
FFF0
FFF0
0000
0000
FFF0
FFF0
ENDCHAR

STARTCHAR greater
ENCODING 62
SWIDTH 600 0
DWIDTH 15 0
BBX 11 11 4 2
BITMAP
C000
F000
3C00
0700
01E0
00E0
03C0
0E00
7800
E000
8000
ENDCHAR

STARTCHAR question
ENCODING 63
SWIDTH 540 0
DWIDTH 14 0
BBX 11 17 4 0
BITMAP
3F00
71C0
60C0
0060
0060
0060
0060
00C0
0780
3E00
2000
2000
2000
0000
6000
E000
C000
ENDCHAR

STARTCHAR at
ENCODING 64
SWIDTH 780 0
DWIDTH 20 0
BBX 22 23 1 -5
BITMAP
007F00
038080
060040
080020
100010
300010
603988
404708
408308
C18308
830608
830608
860E10
861C10
862C20
C7CCC4
438704
600008
200010
100020
0C0040
030380
00FC00
ENDCHAR

STARTCHAR A
ENCODING 65
SWIDTH 700 0
DWIDTH 17 0
BBX 18 17 0 0
BITMAP
001800
003C00
002C00
006C00
004C00
00CC00
018C00
018E00
030600
020600
07FE00
0C0600
0C0700
180700
100300
300700
FC1FC0
ENDCHAR

STARTCHAR B
ENCODING 66
SWIDTH 720 0
DWIDTH 18 0
BBX 18 17 1 0
BITMAP
1FFF00
070380
0601C0
0600C0
0600C0
0601C0
0E0180
0C0700
0FFC00
0C0700
1C0380
1C0180
180180
180380
180300
380E00
FFFC00
ENDCHAR

STARTCHAR C
ENCODING 67
SWIDTH 720 0
DWIDTH 18 0
BBX 17 17 3 0
BITMAP
01FD80
070780
0C0380
180180
380180
700080
700000
600000
E00000
E00000
E00000
E00000
600300
700600
381C00
1FF000
07C000
ENDCHAR

STARTCHAR D
ENCODING 68
SWIDTH 740 0
DWIDTH 18 0
BBX 18 17 1 0
BITMAP
1FFE00
060F00
060380
0601C0
0601C0
0E00C0
0C00C0
0C00C0
0C00C0
1C01C0
1801C0
180180
180380
180700
380E00
383C00
FFF000
ENDCHAR

STARTCHAR E
ENCODING 69
SWIDTH 680 0
DWIDTH 17 0
BBX 18 17 1 0
BITMAP
0FFF00
030780
070180
060080
0600C0
060800
060800
0E1800
0FF800
0C3000
0C1000
0C1080
180180
180300
180700
381E00
FFFE00
ENDCHAR

STARTCHAR F
ENCODING 70
SWIDTH 620 0
DWIDTH 16 0
BBX 17 17 1 0
BITMAP
0FFF00
070380
070180
060080
060080
060800
060800
0C3800
0FF000
0C3000
0C1000
1C3000
180000
180000
180000
380000
FE0000
ENDCHAR

STARTCHAR G
ENCODING 71
SWIDTH 760 0
DWIDTH 19 0
BBX 18 17 3 0
BITMAP
01FD80
070780
1C0380
180180
380180
700000
600000
E00000
E01FC0
E00700
E00700
E00600
600600
700600
380E00
1C7C00
0FE400
ENDCHAR

STARTCHAR H
ENCODING 72
SWIDTH 800 0
DWIDTH 20 0
BBX 22 17 1 0
BITMAP
0FE1FC
070070
030060
070060
0600E0
0600C0
0600C0
0E00C0
0FFFC0
0C0180
0C0180
1C0180
180180
180380
180300
380300
FE1FC0
ENDCHAR

STARTCHAR I
ENCODING 73
SWIDTH 320 0
DWIDTH 8 0
BBX 10 17 1 0
BITMAP
1FC0
0700
0600
0600
0600
0600
0C00
0C00
0C00
0C00
1C00
1800
1800
1800
3800
3800
FE00
ENDCHAR

STARTCHAR J
ENCODING 74
SWIDTH 560 0
DWIDTH 14 0
BBX 17 17 1 0
BITMAP
003F80
000C00
000C00
000C00
001800
001800
001800
001800
003800
003000
003000
E03000
E07000
C06000
C0E000
61C000
3F0000
ENDCHAR

STARTCHAR K
ENCODING 75
SWIDTH 720 0
DWIDTH 18 0
BBX 20 17 1 0
BITMAP
0FE7F0
0701C0
030300
070600
060C00
061800
066000
0EE000
0DB000
0F3000
0C3800
0C1800
181C00
180C00
180E00
380E00
FE3F80
ENDCHAR

STARTCHAR L
ENCODING 76
SWIDTH 580 0
DWIDTH 15 0
BBX 15 17 1 0
BITMAP
0FE0
0700
0700
0600
0600
0600
0600
0E00
0C00
0C00
0C00
1C02
1804
180C
1818
3878
FFF0
ENDCHAR

STARTCHAR M
ENCODING 77
SWIDTH 860 0
DWIDTH 22 0
BBX 23 17 1 0
BITMAP
0F803E
068068
078058
0680B0
05C1B0
04C130
0CC370
0CC260
0CC660
08C460
08CC60
18C8E0
18D0C0
10F0C0
10E0C0
3061C0
FC47F0
ENDCHAR

STARTCHAR N
ENCODING 78
SWIDTH 720 0
DWIDTH 18 0
BBX 20 17 1 0
BITMAP
0F83F0
06C0C0
06C0C0
06C080
06E080
046180
046180
0C7100
0C3100
083300
081B00
181A00
181A00
100E00
100E00
300E00
FC0400
ENDCHAR

STARTCHAR O
ENCODING 79
SWIDTH 760 0
DWIDTH 19 0
BBX 17 17 3 0
BITMAP
03FC00
0F0E00
1C0700
380380
300380
700180
E00180
E00180
C00180
C00380
C00380
C00300
E00700
600E00
701C00
387800
0FE000
ENDCHAR

STARTCHAR P
ENCODING 80
SWIDTH 600 0
DWIDTH 15 0
BBX 16 17 1 0
BITMAP
1FFC
070E
0607
0603
0603
0E03
0E07
0C0E
0C1C
0FF8
1C00
1800
1800
1800
3800
3800
FE00
ENDCHAR

STARTCHAR Q
ENCODING 81
SWIDTH 780 0
DWIDTH 20 0
BBX 17 22 3 -5
BITMAP
03F800
0F0E00
1C0700
380300
700380
600180
E00180
E00180
C00180
C00380
C00380
C00300
C00700
E00E00
601C00
303800
1FE000
070000
060000
070800
03F800
01C000
ENDCHAR

STARTCHAR R
ENCODING 82
SWIDTH 700 0
DWIDTH 17 0
BBX 18 17 1 0
BITMAP
0FFF00
0303C0
0301C0
0300C0
0700C0
0601C0
060180
060780
07FE00
0E7000
0C3000
0C3800
0C1800
1C1C00
180C00
1C0600
FE0780
ENDCHAR

STARTCHAR S
ENCODING 83
SWIDTH 640 0
DWIDTH 16 0
BBX 15 17 3 0
BITMAP
07F2
1C3E
180E
3006
3002
3800
1E00
0F80
03F0
0078
001C
800C
C00C
C00C
E018
B870
8FE0
ENDCHAR

STARTCHAR T
ENCODING 84
SWIDTH 600 0
DWIDTH 15 0
BBX 15 18 3 0
BITMAP
2006
3FFE
718E
6186
C382
8302
0300
0300
0300
0600
0600
0600
0600
0E00
0C00
0C00
1C00
7F00
ENDCHAR

STARTCHAR U
ENCODING 85
SWIDTH 720 0
DWIDTH 18 0
BBX 18 17 4 0
BITMAP
FE0FC0
380200
300200
300600
300600
700400
600400
600C00
600C00
E00800
C00800
C01800
C01000
E03000
606000
3FC000
0F0000
ENDCHAR

STARTCHAR V
ENCODING 86
SWIDTH 680 0
DWIDTH 17 0
BBX 17 17 4 0
BITMAP
FC1F80
700600
300C00
300C00
301800
301000
303000
302000
386000
18C000
188000
198000
190000
1B0000
1E0000
0E0000
0C0000
ENDCHAR

STARTCHAR W
ENCODING 87
SWIDTH 960 0
DWIDTH 24 0
BBX 24 17 4 0
BITMAP
FC7E3F
70380C
303018
303018
303830
307830
305860
30D840
3098C0
319880
311980
3B1900
1A1B00
1E1A00
1C1E00
1C1C00
181C00
ENDCHAR

STARTCHAR X
ENCODING 88
SWIDTH 700 0
DWIDTH 17 0
BBX 20 17 0 0
BITMAP
0FE3F0
0380C0
018180
01C300
00C600
00EC00
007800
003000
007000
00D800
019800
031C00
060C00
0C0E00
180600
300700
FC1FC0
ENDCHAR

STARTCHAR Y
ENCODING 89
SWIDTH 660 0
DWIDTH 16 0
BBX 16 17 4 0
BITMAP
FC3F
700C
3008
3818
1830
1860
1CC0
0C80
0D00
0700
0600
0600
0E00
0C00
0C00
1C00
7F00
ENDCHAR

STARTCHAR Z
ENCODING 90
SWIDTH 580 0
DWIDTH 15 0
BBX 16 17 1 0
BITMAP
0FFF
0E06
180E
301C
2038
0070
00E0
01C0
0380
0300
0700
0E06
1C04
380C
7018
E0F8
FFF0
ENDCHAR

STARTCHAR bracketleft
ENCODING 91
SWIDTH 260 0
DWIDTH 7 0
BBX 9 23 1 -6
BITMAP
0780
0600
0400
0C00
0C00
0C00
0800
1800
1800
1800
1000
1000
3000
3000
3000
2000
6000
6000
6000
4000
C000
C000
F000
ENDCHAR

STARTCHAR backslash
ENCODING 92
SWIDTH 600 0
DWIDTH 15 0
BBX 14 21 2 -3
BITMAP
C000
4000
6000
2000
3000
1800
1800
0C00
0400
0600
0200
0300
0180
0080
00C0
0040
0060
0030
0010
0018
000C
ENDCHAR

STARTCHAR bracketright
ENCODING 93
SWIDTH 260 0
DWIDTH 7 0
BBX 9 23 -1 -6
BITMAP
0780
0180
0180
0100
0300
0300
0300
0200
0600
0600
0600
0400
0C00
0C00
0C00
0800
0800
1800
1800
1800
1000
3000
F000
ENDCHAR

STARTCHAR asciicircum
ENCODING 94
SWIDTH 600 0
DWIDTH 15 0
BBX 13 10 3 7
BITMAP
0700
0F00
0D80
1980
18C0
30C0
3060
6020
4030
C018
ENDCHAR

STARTCHAR underscore
ENCODING 95
SWIDTH 500 0
DWIDTH 13 0
BBX 13 1 0 -3
BITMAP
FFF8
ENDCHAR

STARTCHAR quoteleft
ENCODING 96
SWIDTH 280 0
DWIDTH 7 0
BBX 5 7 5 11
BITMAP
08
30
60
C0
E0
E0
60
ENDCHAR

STARTCHAR a
ENCODING 97
SWIDTH 620 0
DWIDTH 16 0
BBX 15 12 2 0
BITMAP
0FD8
1C78
3818
7030
6030
E030
C070
C060
C0E0
C1E2
6364
7C38
ENDCHAR

STARTCHAR b
ENCODING 98
SWIDTH 600 0
DWIDTH 15 0
BBX 13 18 2 0
BITMAP
0C00
7C00
0C00
1800
1800
1800
19F0
3338
3418
3818
3818
3018
7038
6030
6070
60E0
F1C0
CF00
ENDCHAR

STARTCHAR c
ENCODING 99
SWIDTH 480 0
DWIDTH 12 0
BBX 11 12 2 0
BITMAP
0FC0
1CE0
3060
6060
E000
C000
C000
C000
C000
E060
7380
3E00
ENDCHAR

STARTCHAR d
ENCODING 100
SWIDTH 640 0
DWIDTH 16 0
BBX 15 18 2 0
BITMAP
000E
003C
000C
000C
000C
0018
0FD8
1C78
3818
7030
6030
E030
C070
C070
C0A0
C1E2
6364
3C38
ENDCHAR

STARTCHAR e
ENCODING 101
SWIDTH 540 0
DWIDTH 14 0
BBX 12 12 2 0
BITMAP
07E0
1C70
3030
7030
6060
E7C0
FC00
C000
C000
E060
71C0
3F00
ENDCHAR

STARTCHAR f
ENCODING 102
SWIDTH 340 0
DWIDTH 9 0
BBX 16 23 -2 -5
BITMAP
003E
0067
0061
00C0
00C0
00C0
07F0
0180
0180
0180
0180
0300
0300
0300
0300
0300
0600
0600
0600
0400
0C00
C800
F000
ENDCHAR

STARTCHAR g
ENCODING 103
SWIDTH 560 0
DWIDTH 14 0
BBX 14 17 1 -5
BITMAP
07EC
0E38
1818
3818
3018
7038
6030
6070
6070
60B0
3370
3E60
0060
00E0
C0C0
E380
3E00
ENDCHAR

STARTCHAR h
ENCODING 104
SWIDTH 620 0
DWIDTH 16 0
BBX 14 18 3 0
BITMAP
0C00
7C00
1800
1800
1800
1800
31E0
3630
3C30
3830
3070
7060
6060
6060
60E0
C0C4
C0C8
C070
ENDCHAR

STARTCHAR i
ENCODING 105
SWIDTH 280 0
DWIDTH 7 0
BBX 6 18 3 0
BITMAP
1C
1C
18
00
00
00
18
F0
30
30
70
60
60
60
C0
C4
CC
70
ENDCHAR

STARTCHAR j
ENCODING 106
SWIDTH 280 0
DWIDTH 7 0
BBX 12 23 -3 -5
BITMAP
0030
0070
0060
0000
0000
0000
0060
03C0
00C0
00C0
00C0
0180
0180
0180
0180
0380
0300
0300
0300
0600
8600
CC00
F800
ENDCHAR

STARTCHAR k
ENCODING 107
SWIDTH 600 0
DWIDTH 15 0
BBX 14 18 2 0
BITMAP
0C00
3C00
0C00
0C00
1800
1800
187C
199C
1B00
3700
3500
3B00
3180
7180
61C0
60C4
60EC
C078
ENDCHAR

STARTCHAR l
ENCODING 108
SWIDTH 280 0
DWIDTH 7 0
BBX 6 18 3 0
BITMAP
1C
78
18
18
38
30
30
30
30
60
60
60
60
E0
C0
C4
C8
70
ENDCHAR

STARTCHAR m
ENCODING 109
SWIDTH 880 0
DWIDTH 22 0
BBX 20 12 3 0
BITMAP
33C780
F468C0
3870C0
3060C0
7061C0
60E180
60C180
60C180
E0C300
C18310
C18320
C181C0
ENDCHAR

STARTCHAR n
ENCODING 110
SWIDTH 620 0
DWIDTH 16 0
BBX 14 12 3 0
BITMAP
39E0
F630
3430
3830
3070
7060
7060
6060
60C0
E0C4
C0C8
C070
ENDCHAR

STARTCHAR o
ENCODING 111
SWIDTH 540 0
DWIDTH 14 0
BBX 12 12 2 0
BITMAP
0FC0
1860
3070
6030
E030
C030
C030
C070
C060
E0C0
7180
3F00
ENDCHAR

STARTCHAR p
ENCODING 112
SWIDTH 600 0
DWIDTH 15 0
BBX 16 17 -1 -5
BITMAP
073E
1E67
0683
0703
0703
0603
0E07
0C06
0C0E
0C0C
1E38
19E0
1800
1800
3800
3800
FE00
ENDCHAR

STARTCHAR q
ENCODING 113
SWIDTH 560 0
DWIDTH 14 0
BBX 13 17 2 -5
BITMAP
0FD8
1C78
3030
7030
6030
E070
C060
C0E0
C0E0
C160
66C0
7CC0
00C0
00C0
00C0
01C0
0FE0
ENDCHAR

STARTCHAR r
ENCODING 114
SWIDTH 400 0
DWIDTH 10 0
BBX 9 12 3 0
BITMAP
3380
F780
2C00
3800
7000
7000
6000
6000
E000
C000
C000
C000
ENDCHAR

STARTCHAR s
ENCODING 115
SWIDTH 540 0
DWIDTH 14 0
BBX 13 12 2 0
BITMAP
0FE0
1870
3038
3010
1C00
0F80
03E0
0070
C030
E030
7060
1FC0
ENDCHAR

STARTCHAR t
ENCODING 116
SWIDTH 340 0
DWIDTH 9 0
BBX 7 16 3 0
BITMAP
08
18
10
70
FE
30
30
60
60
60
60
C0
C0
C6
CC
78
ENDCHAR

STARTCHAR u
ENCODING 117
SWIDTH 620 0
DWIDTH 16 0
BBX 15 12 2 0
BITMAP
1818
F818
1818
3030
3030
3030
3070
6060
60E0
61E2
6764
3C38
ENDCHAR

STARTCHAR v
ENCODING 118
SWIDTH 540 0
DWIDTH 14 0
BBX 13 13 2 0
BITMAP
0010
1838
F838
1818
3018
3010
3010
3030
6060
6040
6180
6300
3C00
ENDCHAR

STARTCHAR w
ENCODING 119
SWIDTH 880 0
DWIDTH 22 0
BBX 21 13 2 0
BITMAP
000010
181838
F81838
103018
303018
303018
303010
307030
606020
60E040
6160C0
636300
3C3E00
ENDCHAR

STARTCHAR x
ENCODING 120
SWIDTH 540 0
DWIDTH 14 0
BBX 14 12 1 0
BITMAP
0C1C
3E3C
0660
06C0
0380
0300
0700
0580
0980
1984
F0C8
E0F0
ENDCHAR

STARTCHAR y
ENCODING 121
SWIDTH 600 0
DWIDTH 15 0
BBX 14 17 1 -5
BITMAP
0C0C
7C0C
0C0C
181C
1818
1818
1838
3038
3070
30F0
39B0
1E30
0060
0060
E0C0
6180
3F00
ENDCHAR

STARTCHAR z
ENCODING 122
SWIDTH 520 0
DWIDTH 13 0
BBX 14 12 1 0
BITMAP
1F80
39FC
3070
30E0
01C0
0380
0700
1C10
3838
6038
FC30
07E0
ENDCHAR

STARTCHAR braceleft
ENCODING 123
SWIDTH 360 0
DWIDTH 9 0
BBX 10 22 3 -5
BITMAP
01C0
0200
0400
0C00
0C00
0C00
0C00
0800
1800
3000
C000
4000
2000
3000
3000
7000
6000
E000
C000
C000
4000
3000
ENDCHAR

STARTCHAR bar
ENCODING 124
SWIDTH 600 0
DWIDTH 15 0
BBX 2 24 8 -5
BITMAP
C0
C0
C0
C0
C0
C0
C0
C0
C0
C0
C0
C0
C0
C0
C0
C0
C0
C0
C0
C0
C0
C0
C0
C0
ENDCHAR

STARTCHAR braceright
ENCODING 125
SWIDTH 380 0
DWIDTH 9 0
BBX 9 22 0 -5
BITMAP
0600
0100
0180
0180
0380
0300
0700
0600
0600
0200
0180
0300
0400
0C00
0800
1800
1800
1800
1800
1000
3000
C000
ENDCHAR

STARTCHAR asciitilde
ENCODING 126
SWIDTH 600 0
DWIDTH 15 0
BBX 11 4 4 6
BITMAP
3040
7C60
C7C0
8180
ENDCHAR

STARTCHAR space
ENCODING 160
SWIDTH 300 0
DWIDTH 9 0
BBX 0 0 0 0
BITMAP
ENDCHAR

STARTCHAR Aogonek
ENCODING 161
SWIDTH 700 0
DWIDTH 17 0
BBX 18 21 0 -4
BITMAP
001800
003C00
002C00
006C00
004C00
00CC00
018C00
018E00
030600
020600
07FE00
0C0600
0C0600
180700
100300
300700
FC1FC0
000200
000400
000400
000300
ENDCHAR

STARTCHAR breve
ENCODING 162
SWIDTH 440 0
DWIDTH 11 0
BBX 8 3 5 14
BITMAP
81
7E
3C
ENDCHAR

STARTCHAR Lslash
ENCODING 163
SWIDTH 580 0
DWIDTH 15 0
BBX 15 17 1 0
BITMAP
0FE0
0700
0700
0600
0600
0640
0780
0F00
0C00
3C00
4C00
1C02
1804
180C
1818
3878
FFF0
ENDCHAR

STARTCHAR currency
ENCODING 164
SWIDTH 600 0
DWIDTH 15 0
BBX 11 11 4 3
BITMAP
CE60
FFE0
60C0
4040
C060
C060
C060
4040
60C0
FFE0
CE60
ENDCHAR

STARTCHAR Lcaron
ENCODING 165
SWIDTH 580 0
DWIDTH 15 0
BBX 15 17 1 0
BITMAP
0FCC
070E
070A
0606
0604
0608
0630
0C00
0C00
0C00
0C00
1C06
1804
180C
1818
3878
FFF0
ENDCHAR

STARTCHAR Sacute
ENCODING 166
SWIDTH 640 0
DWIDTH 16 0
BBX 15 21 3 0
BITMAP
0038
0070
00C0
0000
07F2
1C3E
180E
3006
3002
3800
1E00
0F80
03F0
0078
001C
800C
C00C
C00C
E018
B870
8FE0
ENDCHAR

STARTCHAR section
ENCODING 167
SWIDTH 620 0
DWIDTH 16 0
BBX 14 22 1 -5
BITMAP
03F0
0618
0C1C
0C0C
0C00
0E00
0780
0DE0
1870
3018
3018
3018
3810
1E20
0FC0
01E0
0070
C030
E030
6060
30E0
1F80
ENDCHAR

STARTCHAR dieresis
ENCODING 168
SWIDTH 420 0
DWIDTH 10 0
BBX 7 3 5 14
BITMAP
66
EE
CC
ENDCHAR

STARTCHAR Scaron
ENCODING 169
SWIDTH 640 0
DWIDTH 16 0
BBX 15 21 3 0
BITMAP
0618
01F0
00C0
0000
07F2
1C3E
180E
3006
3002
3800
1E00
0F80
03F0
0078
001C
800C
C00C
C00C
E018
B870
8FE0
ENDCHAR

STARTCHAR Scommaaccent
ENCODING 170
SWIDTH 640 0
DWIDTH 16 0
BBX 15 23 2 -6
BITMAP
07F2
0C1E
180E
3006
3002
3800
1E00
0F80
03F0
0078
001C
800C
C00C
C00C
E018
B870
8FE0
0000
0700
0700
0300
0600
0400
ENDCHAR

STARTCHAR Tcaron
ENCODING 171
SWIDTH 600 0
DWIDTH 15 0
BBX 15 21 3 0
BITMAP
0338
01E0
0040
2006
3FFE
718E
6186
C382
8302
0300
0300
0300
0600
0600
0600
0600
0E00
0C00
0C00
1C00
7F00
ENDCHAR

STARTCHAR Zacute
ENCODING 172
SWIDTH 580 0
DWIDTH 15 0
BBX 16 22 1 0
BITMAP
0008
001C
0038
0060
0000
0FFF
0E06
180E
301C
2038
0070
00E0
01C0
0380
0300
0700
0E06
1C04
380C
7018
E0F8
FFF0
ENDCHAR

STARTCHAR hyphen
ENCODING 173
SWIDTH 320 0
DWIDTH 8 0
BBX 7 1 2 6
BITMAP
FE
ENDCHAR

STARTCHAR Zcaron
ENCODING 174
SWIDTH 580 0
DWIDTH 15 0
BBX 16 21 1 0
BITMAP
00CE
0078
0010
0000
0FFF
0E06
180E
301C
2038
0070
00E0
01C0
0380
0300
0700
0E06
1C04
380C
7018
E0F8
FFF0
ENDCHAR

STARTCHAR Zdotaccent
ENCODING 175
SWIDTH 580 0
DWIDTH 15 0
BBX 17 21 0 0
BITMAP
001800
003800
003000
000000
07FF80
0F0700
0C0E00
181C00
103800
003000
007000
00E000
01C000
038000
070000
0E0200
1C0600
180C00
381C00
607800
FFF800
ENDCHAR

STARTCHAR degree
ENCODING 176
SWIDTH 400 0
DWIDTH 10 0
BBX 7 6 5 11
BITMAP
7C
C6
82
82
C6
3C
ENDCHAR

STARTCHAR aogonek
ENCODING 177
SWIDTH 620 0
DWIDTH 16 0
BBX 14 16 3 -4
BITMAP
0FB0
1C70
3030
7020
6020
E060
C060
C0C0
C0C0
C1C4
66CC
7C30
0040
0080
0080
0060
ENDCHAR

STARTCHAR ogonek
ENCODING 178
SWIDTH 260 0
DWIDTH 7 0
BBX 3 4 0 -4
BITMAP
60
80
80
60
ENDCHAR

STARTCHAR lslash
ENCODING 179
SWIDTH 340 0
DWIDTH 9 0
BBX 7 18 2 0
BITMAP
0E
3C
0C
0C
1C
1A
1A
1C
18
30
70
B0
B0
70
60
62
64
38
ENDCHAR

STARTCHAR acute
ENCODING 180
SWIDTH 320 0
DWIDTH 8 0
BBX 5 4 5 13
BITMAP
38
70
E0
80
ENDCHAR

STARTCHAR lcaron
ENCODING 181
SWIDTH 374 0
DWIDTH 9 0
BBX 9 18 3 0
BITMAP
1B80
7A80
1980
1900
3200
3400
3000
3000
2000
6000
6000
6000
6000
C000
C000
C800
C800
7000
ENDCHAR

STARTCHAR sacute
ENCODING 182
SWIDTH 540 0
DWIDTH 14 0
BBX 13 17 2 0
BITMAP
0060
00E0
01C0
0200
0000
0FE0
1870
3038
3010
1C00
0F80
03E0
0070
C030
E030
7060
1FC0
ENDCHAR

STARTCHAR caron
ENCODING 183
SWIDTH 440 0
DWIDTH 11 0
BBX 8 3 5 14
BITMAP
81
7E
18
ENDCHAR

STARTCHAR commaaccent
ENCODING 184
SWIDTH 333 0
DWIDTH 8 0
BBX 3 5 3 -6
BITMAP
E0
E0
60
C0
80
ENDCHAR

STARTCHAR scaron
ENCODING 185
SWIDTH 540 0
DWIDTH 14 0
BBX 13 17 2 0
BITMAP
0408
03F0
01C0
0000
0000
0FE0
1870
3038
3010
1C00
0F80
03E0
0070
C030
E030
7060
1FC0
ENDCHAR

STARTCHAR scommaaccent
ENCODING 186
SWIDTH 540 0
DWIDTH 14 0
BBX 13 18 2 -6
BITMAP
0FE0
1870
3038
3010
1C00
0F80
03E0
0070
C030
E030
7060
1FC0
0000
0E00
0E00
0600
0C00
0800
ENDCHAR

STARTCHAR tcaron
ENCODING 187
SWIDTH 358 0
DWIDTH 9 0
BBX 10 18 3 0
BITMAP
01C0
01C0
08C0
1180
3200
7000
FE00
3000
2000
6000
6000
6000
6000
C000
C000
C400
CC00
7800
ENDCHAR

STARTCHAR zacute
ENCODING 188
SWIDTH 520 0
DWIDTH 13 0
BBX 14 17 1 0
BITMAP
0020
0070
00E0
0180
0000
1F80
39FC
3070
30E0
01C0
0380
0700
1C10
3838
6038
FC30
07E0
ENDCHAR

STARTCHAR hungarumlaut
ENCODING 189
SWIDTH 340 0
DWIDTH 9 0
BBX 5 5 5 13
BITMAP
68
D8
D8
90
90
ENDCHAR

STARTCHAR zcaron
ENCODING 190
SWIDTH 520 0
DWIDTH 13 0
BBX 14 16 1 0
BITMAP
0338
00E0
0000
0000
1F80
39FC
3070
30E0
01C0
0380
0700
1C10
3838
6038
FC30
07E0
ENDCHAR

STARTCHAR zdotaccent
ENCODING 191
SWIDTH 520 0
DWIDTH 13 0
BBX 14 17 1 0
BITMAP
00C0
01C0
01C0
0000
0000
1F84
39F8
3030
30E0
01C0
0380
0700
0C00
3818
6038
FE30
07E0
ENDCHAR

STARTCHAR Racute
ENCODING 192
SWIDTH 700 0
DWIDTH 17 0
BBX 18 22 1 0
BITMAP
000600
000E00
001C00
003000
000000
0FFF80
0303C0
0301C0
0300C0
0700C0
0601C0
060180
060780
07FE00
0E7000
0C3000
0C3800
0C1800
1C1C00
180C00
1C0600
FE0780
ENDCHAR

STARTCHAR Aacute
ENCODING 193
SWIDTH 700 0
DWIDTH 17 0
BBX 18 21 0 0
BITMAP
000E00
001C00
003800
000000
001800
003C00
002C00
006C00
004C00
00CC00
018C00
018E00
030600
020600
07FE00
0C0600
0C0700
180700
100300
300700
FC1FC0
ENDCHAR

STARTCHAR Acircumflex
ENCODING 194
SWIDTH 700 0
DWIDTH 17 0
BBX 18 21 0 0
BITMAP
000800
003E00
004300
000000
001800
003C00
002C00
006C00
004C00
00CC00
018C00
018E00
030600
020600
07FE00
0C0600
0C0700
180700
100300
300700
FC1FC0
ENDCHAR

STARTCHAR Abreve
ENCODING 195
SWIDTH 700 0
DWIDTH 17 0
BBX 18 21 0 0
BITMAP
004100
007F00
001C00
000000
001800
003C00
002C00
006C00
004C00
00CC00
018C00
018E00
030600
020600
07FE00
0C0600
0C0700
180700
100300
300700
FC1FC0
ENDCHAR

STARTCHAR Adieresis
ENCODING 196
SWIDTH 700 0
DWIDTH 17 0
BBX 18 21 0 0
BITMAP
003300
007700
006700
000000
001C00
001C00
003400
006C00
006C00
00CE00
008600
018600
010600
020600
07FE00
040700
0C0300
080300
180300
300380
FC1FC0
ENDCHAR

STARTCHAR Lacute
ENCODING 197
SWIDTH 580 0
DWIDTH 15 0
BBX 15 22 1 0
BITMAP
0008
0038
0078
00E0
0000
0FE0
0700
0700
0600
0600
0600
0600
0E00
0C00
0C00
0C00
1C02
1804
180C
1818
3878
FFF0
ENDCHAR

STARTCHAR Cacute
ENCODING 198
SWIDTH 720 0
DWIDTH 18 0
BBX 17 21 3 0
BITMAP
000C00
001C00
003000
000000
01FD80
070780
0C0380
180180
380180
700080
600000
600000
E00000
E00000
E00000
E00000
600300
700600
381C00
1FF000
07C000
ENDCHAR

STARTCHAR Ccedilla
ENCODING 199
SWIDTH 720 0
DWIDTH 18 0
BBX 17 22 3 -5
BITMAP
01FC80
078780
0E0380
1C0180
380080
700080
700000
600000
E00000
E00000
E00000
E00000
600100
700300
380600
1E3800
0FF000
010000
03C000
004000
06C000
038000
ENDCHAR

STARTCHAR Ccaron
ENCODING 200
SWIDTH 720 0
DWIDTH 18 0
BBX 17 21 3 0
BITMAP
00C300
007C00
001000
000000
01FD80
070780
0C0380
180180
380180
700080
600000
600000
E00000
E00000
E00000
E00000
600300
700600
381C00
1FF000
07C000
ENDCHAR

STARTCHAR Eacute
ENCODING 201
SWIDTH 680 0
DWIDTH 17 0
BBX 18 22 1 0
BITMAP
000800
001C00
003800
006000
000000
0FFF00
030380
070180
060080
0600C0
060800
060800
0E1800
0FF800
0C3000
0C1000
0C1080
180180
180300
180700
381E00
FFFE00
ENDCHAR

STARTCHAR Eogonek
ENCODING 202
SWIDTH 680 0
DWIDTH 17 0
BBX 17 21 1 -4
BITMAP
1FFF00
070700
060180
060080
060080
060800
0E1800
0C3800
0FF000
0C3000
1C1000
183080
180100
180300
180600
381E00
FFFC00
001000
002000
002000
001800
ENDCHAR

STARTCHAR Edieresis
ENCODING 203
SWIDTH 680 0
DWIDTH 17 0
BBX 18 21 1 0
BITMAP
006600
00EE00
00CC00
000000
0FFF80
030380
030180
070080
0600C0
060C00
060800
061800
0FF800
0C1800
0C1000
0C1080
1C0180
180100
180300
180E00
FFFE00
ENDCHAR

STARTCHAR Ecaron
ENCODING 204
SWIDTH 680 0
DWIDTH 17 0
BBX 18 21 1 0
BITMAP
00CE00
007800
001000
000000
0FFF00
030380
070180
060080
0600C0
060800
060800
0E1800
0FF800
0C3000
0C1000
0C1080
180180
180300
180700
381E00
FFFE00
ENDCHAR

STARTCHAR Iacute
ENCODING 205
SWIDTH 320 0
DWIDTH 8 0
BBX 11 22 1 0
BITMAP
0040
00E0
01C0
0300
0000
1FC0
0700
0600
0600
0600
0600
0C00
0C00
0C00
0C00
1C00
1800
1800
1800
3800
3800
FE00
ENDCHAR

STARTCHAR Icircumflex
ENCODING 206
SWIDTH 320 0
DWIDTH 8 0
BBX 11 21 1 0
BITMAP
0380
07C0
0820
0000
1FC0
0700
0600
0600
0600
0600
0C00
0C00
0C00
0C00
1C00
1800
1800
1800
3800
3800
FE00
ENDCHAR

STARTCHAR Dcaron
ENCODING 207
SWIDTH 740 0
DWIDTH 18 0
BBX 18 21 1 0
BITMAP
006700
003C00
000800
000000
1FFE00
060F00
060380
0601C0
0601C0
0E00C0
0C00C0
0C00C0
0C00C0
1C01C0
1801C0
180180
180380
180700
380E00
383C00
FFF000
ENDCHAR

STARTCHAR Dcroat
ENCODING 208
SWIDTH 740 0
DWIDTH 18 0
BBX 18 17 1 0
BITMAP
1FFE00
060F00
060380
0601C0
0601C0
0E00C0
0C00C0
0C00C0
7FE0C0
1C01C0
1801C0
180180
180380
180700
380E00
383C00
FFF000
ENDCHAR

STARTCHAR Nacute
ENCODING 209
SWIDTH 720 0
DWIDTH 18 0
BBX 20 22 1 0
BITMAP
000100
000700
000E00
001800
000000
0F83F0
06C0C0
06C0C0
06C080
06E080
046180
046180
0C7100
0C3100
083300
081B00
181A00
181A00
100E00
100E00
300E00
FC0400
ENDCHAR

STARTCHAR Ncaron
ENCODING 210
SWIDTH 720 0
DWIDTH 18 0
BBX 20 21 1 0
BITMAP
006380
001E00
000800
000000
0F83F0
06C0C0
06C0C0
06C080
06E080
046180
046180
0C7100
0C3100
083300
081B00
181A00
181A00
100E00
100E00
300E00
FC0400
ENDCHAR

STARTCHAR Oacute
ENCODING 211
SWIDTH 760 0
DWIDTH 19 0
BBX 17 21 3 0
BITMAP
000C00
001C00
003000
000000
03F800
0F0E00
1C0700
380380
300380
600180
E00180
E00180
C00180
C00380
C00380
C00700
E00700
600E00
701C00
387000
0FE000
ENDCHAR

STARTCHAR Ocircumflex
ENCODING 212
SWIDTH 760 0
DWIDTH 19 0
BBX 17 21 3 0
BITMAP
001000
007C00
018600
000000
03F800
0F0E00
1C0700
380380
300380
600180
E00180
E00180
C00180
C00380
C00380
C00700
E00700
600E00
701C00
387000
0FE000
ENDCHAR

STARTCHAR Ohungarumlaut
ENCODING 213
SWIDTH 760 0
DWIDTH 19 0
BBX 17 22 3 0
BITMAP
006C00
006C00
005800
009000
000000
03F800
0F0E00
1C0700
380380
300380
600180
E00180
E00180
C00180
C00380
C00380
C00700
E00700
600E00
701C00
387000
0FE000
ENDCHAR

STARTCHAR Odieresis
ENCODING 214
SWIDTH 760 0
DWIDTH 19 0
BBX 17 21 3 0
BITMAP
006600
00EE00
00CC00
000000
03FC00
070E00
1C0300
380380
300180
700180
E00180
E00180
E00180
C00380
C00380
C00300
E00700
600E00
701C00
387800
0FE000
ENDCHAR

STARTCHAR multiply
ENCODING 215
SWIDTH 600 0
DWIDTH 15 0
BBX 10 11 4 3
BITMAP
4040
C0C0
6180
3300
1E00
0C00
1E00
3300
6180
C0C0
4040
ENDCHAR

STARTCHAR Rcaron
ENCODING 216
SWIDTH 700 0
DWIDTH 17 0
BBX 18 21 1 0
BITMAP
007300
001C00
000800
000000
0FFF80
0303C0
0301C0
0300C0
0700C0
0601C0
060180
060780
07FE00
0E7000
0C3000
0C3800
0C1800
1C1C00
180C00
1C0600
FE0780
ENDCHAR

STARTCHAR Uring
ENCODING 217
SWIDTH 720 0
DWIDTH 18 0
BBX 18 23 3 0
BITMAP
007000
008800
008800
008800
007000
000000
FE0FC0
380300
300300
300200
300200
700600
600600
600400
600400
E00C00
C00C00
C00800
C01800
E01000
707000
3FC000
0F0000
ENDCHAR

STARTCHAR Uacute
ENCODING 218
SWIDTH 720 0
DWIDTH 18 0
BBX 18 22 4 0
BITMAP
000800
003800
007000
00C000
000000
FE0FC0
380200
300200
300600
300600
700400
600400
600C00
600C00
E00800
C00800
C01800
C01000
E03000
606000
3FC000
0F0000
ENDCHAR

STARTCHAR Uhungarumlaut
ENCODING 219
SWIDTH 720 0
DWIDTH 18 0
BBX 18 22 4 0
BITMAP
005800
00D800
009000
00B000
000000
FE0FC0
380200
300200
300600
300600
700400
600400
600C00
600C00
E00800
C00800
C01800
C01000
E03000
606000
3FC000
0F0000
ENDCHAR

STARTCHAR Udieresis
ENCODING 220
SWIDTH 720 0
DWIDTH 18 0
BBX 18 21 4 0
BITMAP
00CC00
01DC00
019800
000000
FE0FC0
380300
300200
300200
300600
700600
600400
600400
600C00
E00C00
C00800
C00800
C01800
E01000
707000
3FC000
0F0000
ENDCHAR

STARTCHAR Yacute
ENCODING 221
SWIDTH 660 0
DWIDTH 16 0
BBX 16 22 4 0
BITMAP
0010
0070
00F0
01C0
0000
FC3F
700C
3008
3818
1830
1860
1CC0
0C80
0D00
0700
0600
0600
0E00
0C00
0C00
1C00
7F00
ENDCHAR

STARTCHAR Tcommaaccent
ENCODING 222
SWIDTH 600 0
DWIDTH 15 0
BBX 15 24 3 -6
BITMAP
1002
3FFE
31C6
6182
4182
8182
0380
0300
0300
0300
0700
0600
0600
0600
0600
0E00
0E00
3F00
0000
1800
1C00
0C00
1800
1000
ENDCHAR

STARTCHAR germandbls
ENCODING 223
SWIDTH 620 0
DWIDTH 16 0
BBX 18 22 -2 -4
BITMAP
001F00
0071C0
0060C0
00C0C0
00C780
00CC00
079800
019800
018C00
018700
030380
0301C0
0300C0
0300C0
0340C0
06E180
067380
063E00
060000
0C0000
C80000
F00000
ENDCHAR

STARTCHAR racute
ENCODING 224
SWIDTH 400 0
DWIDTH 10 0
BBX 10 17 3 0
BITMAP
01C0
0380
0700
0400
0000
3380
F780
2C00
3800
7000
7000
6000
6000
E000
C000
C000
C000
ENDCHAR

STARTCHAR aacute
ENCODING 225
SWIDTH 620 0
DWIDTH 16 0
BBX 15 17 2 0
BITMAP
0030
0070
01E0
0080
0000
0FD8
1C78
3818
7030
6030
E030
C070
C060
C0E0
C1E2
6364
3C38
ENDCHAR

STARTCHAR acircumflex
ENCODING 226
SWIDTH 620 0
DWIDTH 16 0
BBX 15 17 2 0
BITMAP
0040
01E0
0618
0000
0000
0FD8
1C78
3818
7030
6030
E030
C070
C060
C0E0
C1E2
6364
3C38
ENDCHAR

STARTCHAR abreve
ENCODING 227
SWIDTH 620 0
DWIDTH 16 0
BBX 15 17 2 0
BITMAP
0204
01F8
00F0
0000
0000
0FD8
1C78
3818
7030
6030
E030
C070
C060
C0E0
C1E2
6364
3C38
ENDCHAR

STARTCHAR adieresis
ENCODING 228
SWIDTH 620 0
DWIDTH 16 0
BBX 15 17 2 0
BITMAP
0198
03B8
0330
0000
0000
0FD8
1C78
3038
7030
6030
E070
C070
C0E0
C0E0
C162
6664
3C38
ENDCHAR

STARTCHAR lacute
ENCODING 229
SWIDTH 280 0
DWIDTH 7 0
BBX 7 22 3 0
BITMAP
02
0E
1C
20
1C
78
18
18
38
30
30
30
30
60
60
60
60
E0
C0
C4
C8
70
ENDCHAR

STARTCHAR cacute
ENCODING 230
SWIDTH 480 0
DWIDTH 12 0
BBX 11 17 2 0
BITMAP
0060
00E0
01C0
0100
0000
0FC0
1CE0
3060
6060
E000
C000
C000
C000
C000
E0E0
7180
3E00
ENDCHAR

STARTCHAR ccedilla
ENCODING 231
SWIDTH 480 0
DWIDTH 12 0
BBX 11 17 2 -5
BITMAP
0FC0
18E0
3060
6060
E000
C000
C000
C000
C000
E0E0
7380
3E00
1000
1C00
0400
2400
3800
ENDCHAR

STARTCHAR ccaron
ENCODING 232
SWIDTH 480 0
DWIDTH 12 0
BBX 12 17 2 0
BITMAP
0410
07E0
0180
0000
0000
0FC0
1CE0
3060
6060
E000
C000
C000
C000
C000
E0E0
7180
3E00
ENDCHAR

STARTCHAR eacute
ENCODING 233
SWIDTH 540 0
DWIDTH 14 0
BBX 12 17 2 0
BITMAP
0070
00F0
01C0
0100
0000
07E0
1C70
3030
7030
6060
E7C0
FC00
C000
C000
E060
71C0
3F00
ENDCHAR

STARTCHAR eogonek
ENCODING 234
SWIDTH 540 0
DWIDTH 14 0
BBX 12 16 2 -4
BITMAP
07E0
1C70
3030
6030
E0E0
C7C0
F800
C000
C000
E060
71C0
3F00
0800
1000
1000
0C00
ENDCHAR

STARTCHAR edieresis
ENCODING 235
SWIDTH 540 0
DWIDTH 14 0
BBX 13 17 2 0
BITMAP
0198
03B8
0338
0000
0000
07E0
1C30
3030
7030
6060
E7C0
FC00
C000
C000
E060
71C0
3F00
ENDCHAR

STARTCHAR ecaron
ENCODING 236
SWIDTH 540 0
DWIDTH 14 0
BBX 13 17 2 0
BITMAP
0208
03F0
00C0
0000
0000
07E0
1C70
3030
7030
6060
E7C0
FC00
C000
C000
E060
71C0
3F00
ENDCHAR

STARTCHAR iacute
ENCODING 237
SWIDTH 280 0
DWIDTH 7 0
BBX 8 17 3 0
BITMAP
03
0E
1E
10
00
18
F0
30
30
60
60
60
60
C0
C4
C8
70
ENDCHAR

STARTCHAR icircumflex
ENCODING 238
SWIDTH 280 0
DWIDTH 7 0
BBX 9 16 3 0
BITMAP
0E00
7B80
0000
0000
1800
F000
3000
3000
6000
6000
6000
6000
C000
C400
C800
7000
ENDCHAR

STARTCHAR dcaron
ENCODING 239
SWIDTH 711 0
DWIDTH 18 0
BBX 18 18 2 0
BITMAP
000DC0
003DC0
000C40
000C80
001900
001A00
0FD800
1C7800
381000
703000
603000
E03000
C07000
C06000
C0E000
C1E400
676400
7C3800
ENDCHAR

STARTCHAR dcroat
ENCODING 240
SWIDTH 640 0
DWIDTH 16 0
BBX 16 18 2 0
BITMAP
003E
003C
000C
00FF
0018
0018
0FD8
1C78
3818
7030
6030
E030
C070
C070
C0E0
C1E2
6764
7C38
ENDCHAR

STARTCHAR nacute
ENCODING 241
SWIDTH 620 0
DWIDTH 16 0
BBX 14 17 3 0
BITMAP
0070
00E0
01C0
0000
0000
39E0
F630
3C30
3830
3070
7060
6060
6060
60E0
E0C4
C0C8
C070
ENDCHAR

STARTCHAR ncaron
ENCODING 242
SWIDTH 620 0
DWIDTH 16 0
BBX 14 17 3 0
BITMAP
0208
01F0
00C0
0000
0000
39E0
F630
3C30
3830
3070
7060
6060
6060
60E0
E0C4
C0C8
C070
ENDCHAR

STARTCHAR oacute
ENCODING 243
SWIDTH 540 0
DWIDTH 14 0
BBX 12 17 2 0
BITMAP
00E0
01E0
0380
0200
0000
0FC0
1860
3070
6030
E030
C030
C030
C070
C060
E0C0
7180
3F00
ENDCHAR

STARTCHAR ocircumflex
ENCODING 244
SWIDTH 540 0
DWIDTH 14 0
BBX 12 17 2 0
BITMAP
0080
03E0
0630
0000
0000
0FC0
1860
3070
6030
E030
C030
C030
C070
C060
E0C0
7180
3F00
ENDCHAR

STARTCHAR ohungarumlaut
ENCODING 245
SWIDTH 540 0
DWIDTH 14 0
BBX 12 18 2 0
BITMAP
0090
01B0
01B0
0360
0120
0000
0FC0
1860
3070
6030
E030
C030
C030
C070
C060
E0C0
7180
3F00
ENDCHAR

STARTCHAR odieresis
ENCODING 246
SWIDTH 540 0
DWIDTH 14 0
BBX 12 17 2 0
BITMAP
0330
0770
0660
0000
0000
0FC0
1860
3070
6030
E030
C030
C030
C070
C060
E0E0
71C0
3F00
ENDCHAR

STARTCHAR divide
ENCODING 247
SWIDTH 600 0
DWIDTH 15 0
BBX 12 10 3 4
BITMAP
0600
0600
0000
0000
FFF0
FFF0
0000
0000
0600
0600
ENDCHAR

STARTCHAR rcaron
ENCODING 248
SWIDTH 400 0
DWIDTH 10 0
BBX 12 17 3 0
BITMAP
0810
07E0
0180
0000
0000
3380
F780
2C00
3800
7000
7000
6000
6000
E000
C000
C000
C000
ENDCHAR

STARTCHAR uring
ENCODING 249
SWIDTH 620 0
DWIDTH 16 0
BBX 15 18 2 0
BITMAP
01C0
0220
0220
0220
01C0
0000
1818
F818
3018
3030
3030
3030
6070
6060
60E0
6162
6664
7C38
ENDCHAR

STARTCHAR uacute
ENCODING 250
SWIDTH 620 0
DWIDTH 16 0
BBX 14 17 3 0
BITMAP
0020
00E0
01E0
0100
0000
3030
F030
3030
7060
6060
6060
60E0
60C0
C1C0
C3C4
E6C8
7870
ENDCHAR

STARTCHAR uhungarumlaut
ENCODING 251
SWIDTH 620 0
DWIDTH 16 0
BBX 14 18 3 0
BITMAP
0120
0360
0360
0240
0480
0000
3030
F030
3030
7060
6060
6060
60E0
60C0
C1C0
C3C4
E6C8
7870
ENDCHAR

STARTCHAR udieresis
ENCODING 252
SWIDTH 620 0
DWIDTH 16 0
BBX 14 17 3 0
BITMAP
0198
03B8
03B8
0000
0000
3030
F030
3030
7060
6060
6060
60E0
60C0
C1C0
C3C4
E6C8
7870
ENDCHAR

STARTCHAR yacute
ENCODING 253
SWIDTH 600 0
DWIDTH 15 0
BBX 14 22 1 -5
BITMAP
0018
0038
0070
00C0
0000
0C0C
7C0C
0C0C
181C
1818
1818
1838
3038
3070
30F0
39B0
1E30
0060
0060
E0C0
7180
3F00
ENDCHAR

STARTCHAR tcommaaccent
ENCODING 254
SWIDTH 340 0
DWIDTH 9 0
BBX 7 22 3 -6
BITMAP
08
18
10
70
FE
30
30
60
60
60
60
C0
C0
C6
CC
78
00
E0
E0
60
C0
80
ENDCHAR

STARTCHAR dotaccent
ENCODING 255
SWIDTH 260 0
DWIDTH 7 0
BBX 3 3 5 14
BITMAP
60
E0
C0
ENDCHAR
ENDFONT
